<svg version="1.1" id="Layer_1" xmlns="http://www.w3.org/2000/svg" xmlns:xlink="http://www.w3.org/1999/xlink" x="0px" y="0px"
	 width="100%" viewBox="0 0 50 50" enable-background="new 0 0 50 50" xml:space="preserve">
<path fill="#0D2041" opacity="1.000000" stroke="none" 
	d="
M25.000057,51.000000 
	C16.686367,51.000000 8.872664,51.000000 1.029481,51.000000 
	C1.029481,34.394798 1.029481,17.789536 1.029481,1.092135 
	C17.563019,1.092135 34.126720,1.092135 50.845211,1.092135 
	C50.845211,17.665548 50.845211,34.332619 50.845211,51.000000 
	C42.457439,51.000000 33.978741,51.000000 25.000057,51.000000 
M18.193378,23.239012 
	C22.072144,24.639301 26.114748,25.718470 29.759226,27.577950 
	C31.530495,28.481688 33.748703,30.944029 33.617466,32.522243 
	C33.455490,34.470112 31.435034,36.967194 29.553999,37.928967 
	C24.950552,40.282707 20.363312,38.022514 18.223495,33.168083 
	C17.745226,32.083076 16.817814,31.196051 16.097183,30.217875 
	C14.537843,35.194759 16.419689,38.341175 19.938778,40.384514 
	C24.127357,42.816582 28.844225,43.058720 32.653442,40.173355 
	C34.842186,38.515450 36.933876,35.106720 36.863251,32.547009 
	C36.793201,30.008369 34.410114,26.973082 32.198586,25.217287 
	C30.135126,23.579050 26.785582,23.671871 24.337400,22.371525 
	C22.415028,21.350460 19.711775,19.428160 19.634180,17.797771 
	C19.471428,14.378050 22.515940,12.289468 25.725103,12.780130 
	C28.378233,13.185777 30.789587,15.175265 33.306950,16.465166 
	C34.377792,17.013870 35.445774,17.568171 36.515060,18.119928 
	C36.794403,17.712011 37.073750,17.304096 37.353092,16.896181 
	C36.519741,15.514505 35.864925,13.977183 34.820671,12.779372 
	C31.210184,8.637965 23.720314,7.988019 19.310644,11.299006 
	C15.596594,14.087685 15.006358,18.013208 18.193378,23.239012 
z"/>
<path fill="#EDEFF1" opacity="1.000000" stroke="none" 
	d="
M17.891907,22.989378 
	C15.006358,18.013208 15.596594,14.087685 19.310644,11.299006 
	C23.720314,7.988019 31.210184,8.637965 34.820671,12.779372 
	C35.864925,13.977183 36.519741,15.514505 37.353092,16.896181 
	C37.073750,17.304096 36.794403,17.712011 36.515060,18.119928 
	C35.445774,17.568171 34.377792,17.013870 33.306950,16.465166 
	C30.789587,15.175265 28.378233,13.185777 25.725103,12.780130 
	C22.515940,12.289468 19.471428,14.378050 19.634180,17.797771 
	C19.711775,19.428160 22.415028,21.350460 24.337400,22.371525 
	C26.785582,23.671871 30.135126,23.579050 32.198586,25.217287 
	C34.410114,26.973082 36.793201,30.008369 36.863251,32.547009 
	C36.933876,35.106720 34.842186,38.515450 32.653442,40.173355 
	C28.844225,43.058720 24.127357,42.816582 19.938778,40.384514 
	C16.419689,38.341175 14.537843,35.194759 16.097183,30.217875 
	C16.817814,31.196051 17.745226,32.083076 18.223495,33.168083 
	C20.363312,38.022514 24.950552,40.282707 29.553999,37.928967 
	C31.435034,36.967194 33.455490,34.470112 33.617466,32.522243 
	C33.748703,30.944029 31.530495,28.481688 29.759226,27.577950 
	C26.114748,25.718470 22.072144,24.639301 17.891907,22.989378 
z"/>
</svg>